<svg width="132" height="174" viewBox="0 0 132 174" fill="none" xmlns="http://www.w3.org/2000/svg">
<rect x="2.5" y="2.5" width="127" height="127" stroke="#7D7878" stroke-width="5"/>
<path d="M75.6053 44.8667C81.4747 47.9973 88.6827 53.544 92.6667 58.872C89.2373 56.472 84.6373 56.1333 79.1787 57.408C79.7707 53.4907 78.6853 47.9813 75.6053 44.8667ZM73.4053 63.3333C73.4053 63.3333 77.464 44.6667 64.512 44.6667H50V98H92.6667V69.656C92.6667 60.536 81.4293 61.3467 73.4053 63.3333ZM72.5573 42L68.6667 39.3333H44.6667V92.6667H47.3333V42H72.5573ZM66.0427 36.6667L62.0427 34H39.3333V87.3333H42V36.6667H66.0427Z" fill="#7D7878"/>
<path d="M25.5234 168V150.938H30.7734C32.2734 150.938 33.6133 151.277 34.793 151.957C35.9805 152.629 36.9062 153.59 37.5703 154.84C38.2344 156.082 38.5664 157.496 38.5664 159.082V159.867C38.5664 161.453 38.2383 162.863 37.582 164.098C36.9336 165.332 36.0156 166.289 34.8281 166.969C33.6406 167.648 32.3008 167.992 30.8086 168H25.5234ZM29.0391 153.785V165.176H30.7383C32.1133 165.176 33.1641 164.727 33.8906 163.828C34.6172 162.93 34.9883 161.645 35.0039 159.973V159.07C35.0039 157.336 34.6445 156.023 33.9258 155.133C33.207 154.234 32.1562 153.785 30.7734 153.785H29.0391ZM48.2578 168C48.1016 167.695 47.9883 167.316 47.918 166.863C47.0977 167.777 46.0312 168.234 44.7188 168.234C43.4766 168.234 42.4453 167.875 41.625 167.156C40.8125 166.438 40.4062 165.531 40.4062 164.438C40.4062 163.094 40.9023 162.062 41.8945 161.344C42.8945 160.625 44.3359 160.262 46.2188 160.254H47.7773V159.527C47.7773 158.941 47.625 158.473 47.3203 158.121C47.0234 157.77 46.5508 157.594 45.9023 157.594C45.332 157.594 44.8828 157.73 44.5547 158.004C44.2344 158.277 44.0742 158.652 44.0742 159.129H40.6875C40.6875 158.395 40.9141 157.715 41.3672 157.09C41.8203 156.465 42.4609 155.977 43.2891 155.625C44.1172 155.266 45.0469 155.086 46.0781 155.086C47.6406 155.086 48.8789 155.48 49.793 156.27C50.7148 157.051 51.1758 158.152 51.1758 159.574V165.07C51.1836 166.273 51.3516 167.184 51.6797 167.801V168H48.2578ZM45.457 165.645C45.957 165.645 46.418 165.535 46.8398 165.316C47.2617 165.09 47.5742 164.789 47.7773 164.414V162.234H46.5117C44.8164 162.234 43.9141 162.82 43.8047 163.992L43.793 164.191C43.793 164.613 43.9414 164.961 44.2383 165.234C44.5352 165.508 44.9414 165.645 45.457 165.645ZM57.832 152.203V155.32H60V157.805H57.832V164.133C57.832 164.602 57.9219 164.938 58.1016 165.141C58.2812 165.344 58.625 165.445 59.1328 165.445C59.5078 165.445 59.8398 165.418 60.1289 165.363V167.93C59.4648 168.133 58.7812 168.234 58.0781 168.234C55.7031 168.234 54.4922 167.035 54.4453 164.637V157.805H52.5938V155.32H54.4453V152.203H57.832ZM69.2344 168C69.0781 167.695 68.9648 167.316 68.8945 166.863C68.0742 167.777 67.0078 168.234 65.6953 168.234C64.4531 168.234 63.4219 167.875 62.6016 167.156C61.7891 166.438 61.3828 165.531 61.3828 164.438C61.3828 163.094 61.8789 162.062 62.8711 161.344C63.8711 160.625 65.3125 160.262 67.1953 160.254H68.7539V159.527C68.7539 158.941 68.6016 158.473 68.2969 158.121C68 157.77 67.5273 157.594 66.8789 157.594C66.3086 157.594 65.8594 157.73 65.5312 158.004C65.2109 158.277 65.0508 158.652 65.0508 159.129H61.6641C61.6641 158.395 61.8906 157.715 62.3438 157.09C62.7969 156.465 63.4375 155.977 64.2656 155.625C65.0938 155.266 66.0234 155.086 67.0547 155.086C68.6172 155.086 69.8555 155.48 70.7695 156.27C71.6914 157.051 72.1523 158.152 72.1523 159.574V165.07C72.1602 166.273 72.3281 167.184 72.6562 167.801V168H69.2344ZM66.4336 165.645C66.9336 165.645 67.3945 165.535 67.8164 165.316C68.2383 165.09 68.5508 164.789 68.7539 164.414V162.234H67.4883C65.793 162.234 64.8906 162.82 64.7812 163.992L64.7695 164.191C64.7695 164.613 64.918 164.961 65.2148 165.234C65.5117 165.508 65.918 165.645 66.4336 165.645ZM81.6211 164.496C81.6211 164.082 81.4141 163.758 81 163.523C80.5938 163.281 79.9375 163.066 79.0312 162.879C76.0156 162.246 74.5078 160.965 74.5078 159.035C74.5078 157.91 74.9727 156.973 75.9023 156.223C76.8398 155.465 78.0625 155.086 79.5703 155.086C81.1797 155.086 82.4648 155.465 83.4258 156.223C84.3945 156.98 84.8789 157.965 84.8789 159.176H81.4922C81.4922 158.691 81.3359 158.293 81.0234 157.98C80.7109 157.66 80.2227 157.5 79.5586 157.5C78.9883 157.5 78.5469 157.629 78.2344 157.887C77.9219 158.145 77.7656 158.473 77.7656 158.871C77.7656 159.246 77.9414 159.551 78.293 159.785C78.6523 160.012 79.2539 160.211 80.0977 160.383C80.9414 160.547 81.6523 160.734 82.2305 160.945C84.0195 161.602 84.9141 162.738 84.9141 164.355C84.9141 165.512 84.418 166.449 83.4258 167.168C82.4336 167.879 81.1523 168.234 79.582 168.234C78.5195 168.234 77.5742 168.047 76.7461 167.672C75.9258 167.289 75.2812 166.77 74.8125 166.113C74.3438 165.449 74.1094 164.734 74.1094 163.969H77.3203C77.3516 164.57 77.5742 165.031 77.9883 165.352C78.4023 165.672 78.957 165.832 79.6523 165.832C80.3008 165.832 80.7891 165.711 81.1172 165.469C81.4531 165.219 81.6211 164.895 81.6211 164.496ZM92.9414 168.234C91.082 168.234 89.5664 167.664 88.3945 166.523C87.2305 165.383 86.6484 163.863 86.6484 161.965V161.637C86.6484 160.363 86.8945 159.227 87.3867 158.227C87.8789 157.219 88.5742 156.445 89.4727 155.906C90.3789 155.359 91.4102 155.086 92.5664 155.086C94.3008 155.086 95.6641 155.633 96.6562 156.727C97.6562 157.82 98.1562 159.371 98.1562 161.379V162.762H90.082C90.1914 163.59 90.5195 164.254 91.0664 164.754C91.6211 165.254 92.3203 165.504 93.1641 165.504C94.4688 165.504 95.4883 165.031 96.2227 164.086L97.8867 165.949C97.3789 166.668 96.6914 167.23 95.8242 167.637C94.957 168.035 93.9961 168.234 92.9414 168.234ZM92.5547 157.828C91.8828 157.828 91.3359 158.055 90.9141 158.508C90.5 158.961 90.2344 159.609 90.1172 160.453H94.8281V160.184C94.8125 159.434 94.6094 158.855 94.2188 158.449C93.8281 158.035 93.2734 157.828 92.5547 157.828ZM104.145 152.203V155.32H106.312V157.805H104.145V164.133C104.145 164.602 104.234 164.938 104.414 165.141C104.594 165.344 104.938 165.445 105.445 165.445C105.82 165.445 106.152 165.418 106.441 165.363V167.93C105.777 168.133 105.094 168.234 104.391 168.234C102.016 168.234 100.805 167.035 100.758 164.637V157.805H98.9062V155.32H100.758V152.203H104.145Z" fill="#7D7878"/>
</svg>
