<svg width="132" height="174" viewBox="0 0 132 174" fill="none" xmlns="http://www.w3.org/2000/svg">
<rect x="2.5" y="2.5" width="127" height="127" stroke="#7D7878" stroke-width="5"/>
<path d="M100.657 85.6169C98.4803 85.6169 96.506 86.4481 94.9753 87.7779C94.8629 87.6613 88.9407 84.2375 88.9407 84.2375V75.9976C92.8571 75.1229 95.7979 71.6208 95.7979 67.4305C95.7979 62.5874 91.8696 58.6431 87.0451 58.6431C84.8647 58.6431 82.8956 59.4772 81.3589 60.8055C81.2488 60.6875 59.849 48.252 59.849 48.252V39.9761C63.3541 39.1765 65.975 36.0423 65.975 32.2792C65.975 27.913 62.4475 24.3726 58.0988 24.3726C53.7448 24.3726 50.221 27.913 50.221 32.2792C50.221 36.0415 52.8412 39.1758 56.3477 39.9761V48.2212C56.3477 48.2212 34.9076 60.6807 34.8019 60.7928C33.2727 59.4923 31.3254 58.6777 29.1742 58.6777C24.3467 58.6777 20.4213 62.619 20.4213 67.4644C20.4213 72.309 24.3467 76.2511 29.1742 76.2511C33.998 76.2511 37.9264 72.3098 37.9264 67.4644C37.9264 66.0315 37.5502 64.6965 36.9426 63.5013L56.3485 52.2761C56.3485 52.2761 56.3762 63.7254 56.383 63.7833C56.3223 63.7961 48.999 63.8367 48.999 63.8367V81.8471H66.9423V63.8375C66.9423 63.8375 59.8745 63.7961 59.8161 63.7841C59.8206 63.7262 59.8498 52.3084 59.8498 52.3084L79.246 63.5261C78.6541 64.71 78.2929 66.0218 78.2929 67.4313C78.2929 71.7254 81.3791 75.2943 85.4371 76.0555V84.2067C85.4371 84.2067 79.8042 87.556 79.6985 87.6681C78.17 86.3676 76.2219 85.553 74.0708 85.553C69.2426 85.553 65.3194 89.4936 65.3194 94.3397C65.3194 99.1844 69.2426 103.126 74.0708 103.126C78.8946 103.126 82.8237 99.1851 82.8237 94.3397C82.8237 92.9069 82.4476 91.5725 81.8399 90.3766L87.2563 87.1551L92.8601 90.4999C92.2682 91.6808 91.9048 92.9956 91.9048 94.4036C91.9048 99.249 95.8309 103.191 100.658 103.191C105.482 103.191 109.411 99.2498 109.411 94.4036C109.409 89.5583 105.481 85.6169 100.657 85.6169ZM29.1757 74.494C25.3133 74.494 22.1724 71.341 22.1724 67.4644C22.1724 63.5878 25.3125 60.4347 29.1757 60.4347C33.0352 60.4347 36.1768 63.5878 36.1768 67.4644C36.1768 71.3403 33.0352 74.494 29.1757 74.494ZM87.0458 74.4602C83.1848 74.4602 80.0424 71.3094 80.0424 67.4305C80.0424 63.5539 83.1841 60.4031 87.0458 60.4031C90.9045 60.4031 94.0469 63.5539 94.0469 67.4305C94.0469 71.3087 90.9053 74.4602 87.0458 74.4602Z" fill="#7D7878"/>
<path d="M28.918 162.316C28.7852 164.152 28.1055 165.598 26.8789 166.652C25.6602 167.707 24.0508 168.234 22.0508 168.234C19.8633 168.234 18.1406 167.5 16.8828 166.031C15.6328 164.555 15.0078 162.531 15.0078 159.961V158.918C15.0078 157.277 15.2969 155.832 15.875 154.582C16.4531 153.332 17.2773 152.375 18.3477 151.711C19.4258 151.039 20.6758 150.703 22.0977 150.703C24.0664 150.703 25.6523 151.23 26.8555 152.285C28.0586 153.34 28.7539 154.82 28.9414 156.727H25.4258C25.3398 155.625 25.0312 154.828 24.5 154.336C23.9766 153.836 23.1758 153.586 22.0977 153.586C20.9258 153.586 20.0469 154.008 19.4609 154.852C18.8828 155.688 18.5859 156.988 18.5703 158.754V160.043C18.5703 161.887 18.8477 163.234 19.4023 164.086C19.9648 164.938 20.8477 165.363 22.0508 165.363C23.1367 165.363 23.9453 165.117 24.4766 164.625C25.0156 164.125 25.3242 163.355 25.4023 162.316H28.918ZM34.5781 168H31.1797V150H34.5781V168ZM44.7266 168C44.5703 167.695 44.457 167.316 44.3867 166.863C43.5664 167.777 42.5 168.234 41.1875 168.234C39.9453 168.234 38.9141 167.875 38.0938 167.156C37.2812 166.438 36.875 165.531 36.875 164.438C36.875 163.094 37.3711 162.062 38.3633 161.344C39.3633 160.625 40.8047 160.262 42.6875 160.254H44.2461V159.527C44.2461 158.941 44.0938 158.473 43.7891 158.121C43.4922 157.77 43.0195 157.594 42.3711 157.594C41.8008 157.594 41.3516 157.73 41.0234 158.004C40.7031 158.277 40.543 158.652 40.543 159.129H37.1562C37.1562 158.395 37.3828 157.715 37.8359 157.09C38.2891 156.465 38.9297 155.977 39.7578 155.625C40.5859 155.266 41.5156 155.086 42.5469 155.086C44.1094 155.086 45.3477 155.48 46.2617 156.27C47.1836 157.051 47.6445 158.152 47.6445 159.574V165.07C47.6523 166.273 47.8203 167.184 48.1484 167.801V168H44.7266ZM41.9258 165.645C42.4258 165.645 42.8867 165.535 43.3086 165.316C43.7305 165.09 44.043 164.789 44.2461 164.414V162.234H42.9805C41.2852 162.234 40.3828 162.82 40.2734 163.992L40.2617 164.191C40.2617 164.613 40.4102 164.961 40.707 165.234C41.0039 165.508 41.4102 165.645 41.9258 165.645ZM57.1133 164.496C57.1133 164.082 56.9062 163.758 56.4922 163.523C56.0859 163.281 55.4297 163.066 54.5234 162.879C51.5078 162.246 50 160.965 50 159.035C50 157.91 50.4648 156.973 51.3945 156.223C52.332 155.465 53.5547 155.086 55.0625 155.086C56.6719 155.086 57.957 155.465 58.918 156.223C59.8867 156.98 60.3711 157.965 60.3711 159.176H56.9844C56.9844 158.691 56.8281 158.293 56.5156 157.98C56.2031 157.66 55.7148 157.5 55.0508 157.5C54.4805 157.5 54.0391 157.629 53.7266 157.887C53.4141 158.145 53.2578 158.473 53.2578 158.871C53.2578 159.246 53.4336 159.551 53.7852 159.785C54.1445 160.012 54.7461 160.211 55.5898 160.383C56.4336 160.547 57.1445 160.734 57.7227 160.945C59.5117 161.602 60.4062 162.738 60.4062 164.355C60.4062 165.512 59.9102 166.449 58.918 167.168C57.9258 167.879 56.6445 168.234 55.0742 168.234C54.0117 168.234 53.0664 168.047 52.2383 167.672C51.418 167.289 50.7734 166.77 50.3047 166.113C49.8359 165.449 49.6016 164.734 49.6016 163.969H52.8125C52.8438 164.57 53.0664 165.031 53.4805 165.352C53.8945 165.672 54.4492 165.832 55.1445 165.832C55.793 165.832 56.2812 165.711 56.6094 165.469C56.9453 165.219 57.1133 164.895 57.1133 164.496ZM69.4648 164.496C69.4648 164.082 69.2578 163.758 68.8438 163.523C68.4375 163.281 67.7812 163.066 66.875 162.879C63.8594 162.246 62.3516 160.965 62.3516 159.035C62.3516 157.91 62.8164 156.973 63.7461 156.223C64.6836 155.465 65.9062 155.086 67.4141 155.086C69.0234 155.086 70.3086 155.465 71.2695 156.223C72.2383 156.98 72.7227 157.965 72.7227 159.176H69.3359C69.3359 158.691 69.1797 158.293 68.8672 157.98C68.5547 157.66 68.0664 157.5 67.4023 157.5C66.832 157.5 66.3906 157.629 66.0781 157.887C65.7656 158.145 65.6094 158.473 65.6094 158.871C65.6094 159.246 65.7852 159.551 66.1367 159.785C66.4961 160.012 67.0977 160.211 67.9414 160.383C68.7852 160.547 69.4961 160.734 70.0742 160.945C71.8633 161.602 72.7578 162.738 72.7578 164.355C72.7578 165.512 72.2617 166.449 71.2695 167.168C70.2773 167.879 68.9961 168.234 67.4258 168.234C66.3633 168.234 65.418 168.047 64.5898 167.672C63.7695 167.289 63.125 166.77 62.6562 166.113C62.1875 165.449 61.9531 164.734 61.9531 163.969H65.1641C65.1953 164.57 65.418 165.031 65.832 165.352C66.2461 165.672 66.8008 165.832 67.4961 165.832C68.1445 165.832 68.6328 165.711 68.9609 165.469C69.2969 165.219 69.4648 164.895 69.4648 164.496ZM78.5234 168H75.125V155.32H78.5234V168ZM74.9258 152.039C74.9258 151.531 75.0938 151.113 75.4297 150.785C75.7734 150.457 76.2383 150.293 76.8242 150.293C77.4023 150.293 77.8633 150.457 78.207 150.785C78.5508 151.113 78.7227 151.531 78.7227 152.039C78.7227 152.555 78.5469 152.977 78.1953 153.305C77.8516 153.633 77.3945 153.797 76.8242 153.797C76.2539 153.797 75.793 153.633 75.4414 153.305C75.0977 152.977 74.9258 152.555 74.9258 152.039ZM82.1445 168V157.805H80.2578V155.32H82.1445V154.734C82.1602 153.141 82.6484 151.914 83.6094 151.055C84.5781 150.188 85.9414 149.754 87.6992 149.754C88.7539 149.754 90.0352 149.984 91.543 150.445L91.0508 153.246C90.2852 153.02 89.6914 152.875 89.2695 152.812C88.8477 152.742 88.3945 152.707 87.9102 152.707C86.332 152.707 85.543 153.406 85.543 154.805V155.32H88.0391V157.805H85.543V168H82.1445ZM93.125 168H89.7266V155.32H93.125V168ZM101.762 168.234C99.9023 168.234 98.3867 167.664 97.2148 166.523C96.0508 165.383 95.4688 163.863 95.4688 161.965V161.637C95.4688 160.363 95.7148 159.227 96.207 158.227C96.6992 157.219 97.3945 156.445 98.293 155.906C99.1992 155.359 100.23 155.086 101.387 155.086C103.121 155.086 104.484 155.633 105.477 156.727C106.477 157.82 106.977 159.371 106.977 161.379V162.762H98.9023C99.0117 163.59 99.3398 164.254 99.8867 164.754C100.441 165.254 101.141 165.504 101.984 165.504C103.289 165.504 104.309 165.031 105.043 164.086L106.707 165.949C106.199 166.668 105.512 167.23 104.645 167.637C103.777 168.035 102.816 168.234 101.762 168.234ZM101.375 157.828C100.703 157.828 100.156 158.055 99.7344 158.508C99.3203 158.961 99.0547 159.609 98.9375 160.453H103.648V160.184C103.633 159.434 103.43 158.855 103.039 158.449C102.648 158.035 102.094 157.828 101.375 157.828ZM116.035 158.496C115.574 158.434 115.168 158.402 114.816 158.402C113.535 158.402 112.695 158.836 112.297 159.703V168H108.91V155.32H112.109L112.203 156.832C112.883 155.668 113.824 155.086 115.027 155.086C115.402 155.086 115.754 155.137 116.082 155.238L116.035 158.496Z" fill="#7D7878"/>
</svg>
