<svg width="132" height="174" viewBox="0 0 132 174" fill="none" xmlns="http://www.w3.org/2000/svg">
<rect x="2.5" y="2.5" width="127" height="127" stroke="black" stroke-width="5"/>
<g clip-path="url(#clip0)">
<path d="M99.6 25.8C97.9521 25.797 96.3398 26.2798 94.9648 27.188C93.5897 28.0962 92.5128 29.3896 91.8687 30.9064C91.2245 32.4232 91.0417 34.0962 91.3431 35.7164C91.6445 37.3365 92.4167 38.8319 93.5632 40.0156L78.2164 70.7036C77.8801 70.6478 77.5406 70.6132 77.2 70.6C76.1156 70.6021 75.0419 70.8152 74.0388 71.2272L62.1248 57.8292C62.8203 56.5995 63.1904 55.2127 63.2 53.8C63.2 51.5722 62.315 49.4356 60.7397 47.8603C59.1644 46.285 57.0278 45.4 54.8 45.4C52.5722 45.4 50.4356 46.285 48.8603 47.8603C47.285 49.4356 46.4 51.5722 46.4 53.8C46.4083 55.8052 47.14 57.74 48.4608 59.2488L33.9008 84.7512C33.4061 84.656 32.9038 84.6054 32.4 84.6C30.7386 84.6 29.1146 85.0927 27.7332 86.0157C26.3518 86.9387 25.2752 88.2506 24.6394 89.7855C24.0036 91.3204 23.8373 93.0093 24.1614 94.6388C24.4855 96.2682 25.2855 97.7649 26.4603 98.9397C27.6351 100.114 29.1318 100.914 30.7612 101.239C32.3907 101.563 34.0796 101.396 35.6145 100.761C37.1494 100.125 38.4613 99.0482 39.3843 97.6668C40.3074 96.2854 40.8 94.6614 40.8 93C40.7918 90.9948 40.06 89.06 38.7392 87.5512L53.2992 62.0488C54.8622 62.3576 56.4819 62.1919 57.95 61.5728L69.864 74.9708C69.1724 76.2015 68.8062 77.5883 68.8 79C68.7959 80.3766 69.1301 81.7331 69.7733 82.9502C70.4165 84.1673 71.349 85.2077 72.4887 85.9797C73.6284 86.7518 74.9404 87.232 76.3092 87.378C77.678 87.524 79.0618 87.3313 80.3387 86.8169C81.6156 86.3025 82.7465 85.4822 83.6319 84.4282C84.5173 83.3741 85.1301 82.1186 85.4164 80.7721C85.7026 79.4256 85.6535 78.0293 85.2735 76.7062C84.8934 75.3831 84.194 74.1737 83.2368 73.1844L98.5836 42.4964C98.9199 42.5522 99.2594 42.5868 99.6 42.6C101.828 42.6 103.964 41.715 105.54 40.1397C107.115 38.5644 108 36.4278 108 34.2C108 31.9722 107.115 29.8356 105.54 28.2603C103.964 26.685 101.828 25.8 99.6 25.8ZM54.8 51C55.3538 51 55.8951 51.1642 56.3556 51.4719C56.8161 51.7796 57.1749 52.2169 57.3869 52.7285C57.5988 53.2401 57.6542 53.8031 57.5462 54.3463C57.4382 54.8894 57.1715 55.3883 56.7799 55.7799C56.3883 56.1715 55.8894 56.4382 55.3463 56.5462C54.8031 56.6542 54.2401 56.5988 53.7285 56.3869C53.2169 56.1749 52.7796 55.8161 52.4719 55.3556C52.1642 54.8951 52 54.3538 52 53.8C52 53.0574 52.295 52.3452 52.8201 51.8201C53.3452 51.295 54.0574 51 54.8 51ZM32.4 95.8C31.8462 95.8 31.3049 95.6358 30.8444 95.3281C30.384 95.0205 30.0251 94.5831 29.8131 94.0715C29.6012 93.5599 29.5458 92.9969 29.6538 92.4538C29.7618 91.9106 30.0285 91.4117 30.4201 91.0201C30.8117 90.6285 31.3106 90.3618 31.8538 90.2538C32.3969 90.1458 32.9599 90.2012 33.4715 90.4131C33.9832 90.6251 34.4205 90.9839 34.7281 91.4444C35.0358 91.9049 35.2 92.4462 35.2 93C35.2 93.7426 34.905 94.4548 34.3799 94.9799C33.8548 95.505 33.1426 95.8 32.4 95.8ZM77.2 81.8C76.6462 81.8 76.1049 81.6358 75.6444 81.3281C75.184 81.0205 74.8251 80.5831 74.6131 80.0715C74.4012 79.5599 74.3458 78.9969 74.4538 78.4537C74.5618 77.9106 74.8285 77.4117 75.2201 77.0201C75.6117 76.6285 76.1106 76.3618 76.6538 76.2538C77.1969 76.1458 77.7599 76.2012 78.2715 76.4131C78.7832 76.6251 79.2205 76.9839 79.5281 77.4444C79.8358 77.9049 80 78.4462 80 79C80 79.7426 79.705 80.4548 79.1799 80.9799C78.6548 81.505 77.9426 81.8 77.2 81.8ZM99.6 37C99.0462 37 98.5049 36.8358 98.0444 36.5281C97.584 36.2204 97.2251 35.7831 97.0131 35.2715C96.8012 34.7599 96.7458 34.1969 96.8538 33.6537C96.9619 33.1106 97.2285 32.6117 97.6201 32.2201C98.0117 31.8285 98.5106 31.5618 99.0538 31.4538C99.5969 31.3458 100.16 31.4012 100.672 31.6131C101.183 31.8251 101.62 32.1839 101.928 32.6444C102.236 33.1049 102.4 33.6462 102.4 34.2C102.4 34.9426 102.105 35.6548 101.58 36.1799C101.055 36.705 100.343 37 99.6 37Z" fill="black"/>
</g>
<path d="M9.03906 161.988V168H5.52344V150.938H12.1797C13.4609 150.938 14.5859 151.172 15.5547 151.641C16.5312 152.109 17.2812 152.777 17.8047 153.645C18.3281 154.504 18.5898 155.484 18.5898 156.586C18.5898 158.258 18.0156 159.578 16.8672 160.547C15.7266 161.508 14.1445 161.988 12.1211 161.988H9.03906ZM9.03906 159.141H12.1797C13.1094 159.141 13.8164 158.922 14.3008 158.484C14.793 158.047 15.0391 157.422 15.0391 156.609C15.0391 155.773 14.793 155.098 14.3008 154.582C13.8086 154.066 13.1289 153.801 12.2617 153.785H9.03906V159.141ZM27.918 158.496C27.457 158.434 27.0508 158.402 26.6992 158.402C25.418 158.402 24.5781 158.836 24.1797 159.703V168H20.793V155.32H23.9922L24.0859 156.832C24.7656 155.668 25.707 155.086 26.9102 155.086C27.2852 155.086 27.6367 155.137 27.9648 155.238L27.918 158.496ZM35.1602 168.234C33.3008 168.234 31.7852 167.664 30.6133 166.523C29.4492 165.383 28.8672 163.863 28.8672 161.965V161.637C28.8672 160.363 29.1133 159.227 29.6055 158.227C30.0977 157.219 30.793 156.445 31.6914 155.906C32.5977 155.359 33.6289 155.086 34.7852 155.086C36.5195 155.086 37.8828 155.633 38.875 156.727C39.875 157.82 40.375 159.371 40.375 161.379V162.762H32.3008C32.4102 163.59 32.7383 164.254 33.2852 164.754C33.8398 165.254 34.5391 165.504 35.3828 165.504C36.6875 165.504 37.707 165.031 38.4414 164.086L40.1055 165.949C39.5977 166.668 38.9102 167.23 38.043 167.637C37.1758 168.035 36.2148 168.234 35.1602 168.234ZM34.7734 157.828C34.1016 157.828 33.5547 158.055 33.1328 158.508C32.7188 158.961 32.4531 159.609 32.3359 160.453H37.0469V160.184C37.0312 159.434 36.8281 158.855 36.4375 158.449C36.0469 158.035 35.4922 157.828 34.7734 157.828ZM41.7812 161.566C41.7812 159.59 42.2227 158.016 43.1055 156.844C43.9961 155.672 45.2109 155.086 46.75 155.086C47.9844 155.086 49.0039 155.547 49.8086 156.469V150H53.207V168H50.1484L49.9844 166.652C49.1406 167.707 48.0547 168.234 46.7266 168.234C45.2344 168.234 44.0352 167.648 43.1289 166.477C42.2305 165.297 41.7812 163.66 41.7812 161.566ZM45.168 161.812C45.168 163 45.375 163.91 45.7891 164.543C46.2031 165.176 46.8047 165.492 47.5938 165.492C48.6406 165.492 49.3789 165.051 49.8086 164.168V159.164C49.3867 158.281 48.6562 157.84 47.6172 157.84C45.9844 157.84 45.168 159.164 45.168 161.812ZM59.4062 168H56.0078V155.32H59.4062V168ZM55.8086 152.039C55.8086 151.531 55.9766 151.113 56.3125 150.785C56.6562 150.457 57.1211 150.293 57.707 150.293C58.2852 150.293 58.7461 150.457 59.0898 150.785C59.4336 151.113 59.6055 151.531 59.6055 152.039C59.6055 152.555 59.4297 152.977 59.0781 153.305C58.7344 153.633 58.2773 153.797 57.707 153.797C57.1367 153.797 56.6758 153.633 56.3242 153.305C55.9805 152.977 55.8086 152.555 55.8086 152.039ZM67.4805 165.504C68.1055 165.504 68.6133 165.332 69.0039 164.988C69.3945 164.645 69.5977 164.188 69.6133 163.617H72.7891C72.7812 164.477 72.5469 165.266 72.0859 165.984C71.625 166.695 70.9922 167.25 70.1875 167.648C69.3906 168.039 68.5078 168.234 67.5391 168.234C65.7266 168.234 64.2969 167.66 63.25 166.512C62.2031 165.355 61.6797 163.762 61.6797 161.73V161.508C61.6797 159.555 62.1992 157.996 63.2383 156.832C64.2773 155.668 65.7031 155.086 67.5156 155.086C69.1016 155.086 70.3711 155.539 71.3242 156.445C72.2852 157.344 72.7734 158.543 72.7891 160.043H69.6133C69.5977 159.387 69.3945 158.855 69.0039 158.449C68.6133 158.035 68.0977 157.828 67.457 157.828C66.668 157.828 66.0703 158.117 65.6641 158.695C65.2656 159.266 65.0664 160.195 65.0664 161.484V161.836C65.0664 163.141 65.2656 164.078 65.6641 164.648C66.0625 165.219 66.668 165.504 67.4805 165.504ZM78.7773 152.203V155.32H80.9453V157.805H78.7773V164.133C78.7773 164.602 78.8672 164.938 79.0469 165.141C79.2266 165.344 79.5703 165.445 80.0781 165.445C80.4531 165.445 80.7852 165.418 81.0742 165.363V167.93C80.4102 168.133 79.7266 168.234 79.0234 168.234C76.6484 168.234 75.4375 167.035 75.3906 164.637V157.805H73.5391V155.32H75.3906V152.203H78.7773ZM86.4062 168H83.0078V155.32H86.4062V168ZM82.8086 152.039C82.8086 151.531 82.9766 151.113 83.3125 150.785C83.6562 150.457 84.1211 150.293 84.707 150.293C85.2852 150.293 85.7461 150.457 86.0898 150.785C86.4336 151.113 86.6055 151.531 86.6055 152.039C86.6055 152.555 86.4297 152.977 86.0781 153.305C85.7344 153.633 85.2773 153.797 84.707 153.797C84.1367 153.797 83.6758 153.633 83.3242 153.305C82.9805 152.977 82.8086 152.555 82.8086 152.039ZM88.6797 161.543C88.6797 160.285 88.9219 159.164 89.4062 158.18C89.8906 157.195 90.5859 156.434 91.4922 155.895C92.4062 155.355 93.4648 155.086 94.668 155.086C96.3789 155.086 97.7734 155.609 98.8516 156.656C99.9375 157.703 100.543 159.125 100.668 160.922L100.691 161.789C100.691 163.734 100.148 165.297 99.0625 166.477C97.9766 167.648 96.5195 168.234 94.6914 168.234C92.8633 168.234 91.4023 167.648 90.3086 166.477C89.2227 165.305 88.6797 163.711 88.6797 161.695V161.543ZM92.0664 161.789C92.0664 162.992 92.293 163.914 92.7461 164.555C93.1992 165.188 93.8477 165.504 94.6914 165.504C95.5117 165.504 96.1523 165.191 96.6133 164.566C97.0742 163.934 97.3047 162.926 97.3047 161.543C97.3047 160.363 97.0742 159.449 96.6133 158.801C96.1523 158.152 95.5039 157.828 94.668 157.828C93.8398 157.828 93.1992 158.152 92.7461 158.801C92.293 159.441 92.0664 160.438 92.0664 161.789ZM105.895 155.32L106 156.785C106.906 155.652 108.121 155.086 109.645 155.086C110.988 155.086 111.988 155.48 112.645 156.27C113.301 157.059 113.637 158.238 113.652 159.809V168H110.266V159.891C110.266 159.172 110.109 158.652 109.797 158.332C109.484 158.004 108.965 157.84 108.238 157.84C107.285 157.84 106.57 158.246 106.094 159.059V168H102.707V155.32H105.895ZM123.098 164.496C123.098 164.082 122.891 163.758 122.477 163.523C122.07 163.281 121.414 163.066 120.508 162.879C117.492 162.246 115.984 160.965 115.984 159.035C115.984 157.91 116.449 156.973 117.379 156.223C118.316 155.465 119.539 155.086 121.047 155.086C122.656 155.086 123.941 155.465 124.902 156.223C125.871 156.98 126.355 157.965 126.355 159.176H122.969C122.969 158.691 122.812 158.293 122.5 157.98C122.188 157.66 121.699 157.5 121.035 157.5C120.465 157.5 120.023 157.629 119.711 157.887C119.398 158.145 119.242 158.473 119.242 158.871C119.242 159.246 119.418 159.551 119.77 159.785C120.129 160.012 120.73 160.211 121.574 160.383C122.418 160.547 123.129 160.734 123.707 160.945C125.496 161.602 126.391 162.738 126.391 164.355C126.391 165.512 125.895 166.449 124.902 167.168C123.91 167.879 122.629 168.234 121.059 168.234C119.996 168.234 119.051 168.047 118.223 167.672C117.402 167.289 116.758 166.77 116.289 166.113C115.82 165.449 115.586 164.734 115.586 163.969H118.797C118.828 164.57 119.051 165.031 119.465 165.352C119.879 165.672 120.434 165.832 121.129 165.832C121.777 165.832 122.266 165.711 122.594 165.469C122.93 165.219 123.098 164.895 123.098 164.496Z" fill="black"/>
<defs>
<clipPath id="clip0">
<rect width="84" height="105" fill="white" transform="translate(24 23)"/>
</clipPath>
</defs>
</svg>
